# xmcd CD database file
#
# Track frame offsets:
#	150
#	12227
#	29651
#	47096
#	63464
#	79227
#	95064
#	109434
#	121850
#	140604
#	164301
#	178236
#	193689
#
# Disc length: 2759 seconds
#
# Revision: 0
# Processed by: cddbd v1.5.2PL0 Copyright (c) Steve Scherf et al.
# Submitted via: CDex 1.51
#
DISCID=bd0ac50d
DTITLE=Norah Jones - The Fall
DYEAR=2009
DGENRE=Jazz
TTITLE0=Chasing Pirates
TTITLE1=Even Though
TTITLE2=Light As A Feather
TTITLE3=Young Blood
TTITLE4=I Wouldn't Need You
TTITLE5=Waiting
TTITLE6=It's Gonna Be
TTITLE7=You've Ruined Me
TTITLE8=Back To Manhattan
TTITLE9=Stuck
TTITLE10=December
TTITLE11=Tell Yer Mama
TTITLE12=Man Of The Hour
EXTD=YEAR: 2009
EXTT0=
EXTT1=
EXTT2=
EXTT3=
EXTT4=
EXTT5=
EXTT6=
EXTT7=
EXTT8=
EXTT9=
EXTT10=
EXTT11=
EXTT12=
PLAYORDER=
